<svg width="13" height="13" viewBox="0 0 13 13" fill="none" xmlns="http://www.w3.org/2000/svg">
<path d="M12.0503 7.81336L6.54732 12.5946C6.49053 12.644 6.4231 12.6832 6.34887 12.7099C6.27464 12.7367 6.19508 12.7504 6.11473 12.7504C6.03437 12.7504 5.95481 12.7367 5.88058 12.7099C5.80635 12.6832 5.73892 12.644 5.68213 12.5946L0.179186 7.81336C0.064455 7.71368 0 7.57847 0 7.4375C0 7.29653 0.064455 7.16132 0.179186 7.06164C0.293917 6.96196 0.449525 6.90595 0.611779 6.90595C0.774032 6.90595 0.929641 6.96196 1.04437 7.06164L5.50329 10.9364V0.53125C5.50329 0.390354 5.56771 0.255228 5.68237 0.1556C5.79704 0.0559709 5.95256 0 6.11473 0C6.27689 0 6.43241 0.0559709 6.54708 0.1556C6.66175 0.255228 6.72617 0.390354 6.72617 0.53125V10.9364L11.1851 7.06164C11.2998 6.96196 11.4554 6.90595 11.6177 6.90595C11.7799 6.90595 11.9355 6.96196 12.0503 7.06164C12.165 7.16132 12.2295 7.29653 12.2295 7.4375C12.2295 7.57847 12.165 7.71368 12.0503 7.81336Z" fill="black"/>
</svg>
