<svg width="83" height="83" viewBox="0 0 83 83" fill="none" xmlns="http://www.w3.org/2000/svg">
<g filter="url(#filter0_d_53_110)">
<circle cx="36.5" cy="36.5" r="21.5" fill="#46CF96"/>
</g>
<path d="M32.971 28.789C32.971 28.5136 33.0596 28.2495 33.2172 28.0548C33.3748 27.8601 33.5887 27.7507 33.8116 27.7507C36.7088 27.7544 39.4865 29.1778 41.5351 31.7085C43.5838 34.2392 44.7361 37.6705 44.7391 41.2494C44.7391 41.5248 44.6506 41.7889 44.4929 41.9836C44.3353 42.1783 44.1215 42.2877 43.8985 42.2877C43.6756 42.2877 43.4618 42.1783 43.3042 41.9836C43.1465 41.7889 43.058 41.5248 43.058 41.2494C43.0552 38.2211 42.0801 35.3179 40.3467 33.1766C38.6133 31.0353 36.263 29.8308 33.8116 29.8274C33.5887 29.8274 33.3748 29.718 33.2172 29.5233C33.0596 29.3285 32.971 29.0644 32.971 28.789ZM48.1014 44.3645H31.2898V23.5972C31.2898 23.3218 31.2013 23.0577 31.0436 22.863C30.886 22.6682 30.6722 22.5588 30.4493 22.5588C30.2263 22.5588 30.0125 22.6682 29.8549 22.863C29.6973 23.0577 29.6087 23.3218 29.6087 23.5972V27.7507H26.2464C26.0234 27.7507 25.8096 27.8601 25.652 28.0548C25.4944 28.2495 25.4058 28.5136 25.4058 28.789C25.4058 29.0644 25.4944 29.3285 25.652 29.5233C25.8096 29.718 26.0234 29.8274 26.2464 29.8274H29.6087V45.4028C29.6087 45.6782 29.6973 45.9423 29.8549 46.1371C30.0125 46.3318 30.2263 46.4412 30.4493 46.4412H48.1014C48.3244 46.4412 48.5382 46.3318 48.6958 46.1371C48.8535 45.9423 48.942 45.6782 48.942 45.4028C48.942 45.1274 48.8535 44.8633 48.6958 44.6686C48.5382 44.4739 48.3244 44.3645 48.1014 44.3645Z" fill="#FAFEFC"/>
<defs>
<filter id="filter0_d_53_110" x="0" y="0" width="83" height="83" filterUnits="userSpaceOnUse" color-interpolation-filters="sRGB">
<feFlood flood-opacity="0" result="BackgroundImageFix"/>
<feColorMatrix in="SourceAlpha" type="matrix" values="0 0 0 0 0 0 0 0 0 0 0 0 0 0 0 0 0 0 127 0" result="hardAlpha"/>
<feOffset dx="5" dy="5"/>
<feGaussianBlur stdDeviation="10"/>
<feComposite in2="hardAlpha" operator="out"/>
<feColorMatrix type="matrix" values="0 0 0 0 0.27451 0 0 0 0 0.811765 0 0 0 0 0.588235 0 0 0 0.22 0"/>
<feBlend mode="normal" in2="BackgroundImageFix" result="effect1_dropShadow_53_110"/>
<feBlend mode="normal" in="SourceGraphic" in2="effect1_dropShadow_53_110" result="shape"/>
</filter>
</defs>
</svg>
