<svg width="40" height="40" viewBox="0 0 40 40" fill="none" xmlns="http://www.w3.org/2000/svg">
<circle cx="20" cy="20" r="20" fill="#D9D9D9" fill-opacity="0.45"/>
<path d="M28.8455 27.9063C28.7852 28.0108 28.6984 28.0976 28.5938 28.1579C28.4893 28.2183 28.3707 28.25 28.25 28.25H11.75C11.6294 28.2499 11.5109 28.218 11.4065 28.1576C11.3021 28.0973 11.2154 28.0105 11.1551 27.906C11.0949 27.8015 11.0632 27.683 11.0632 27.5623C11.0632 27.4417 11.095 27.3232 11.1553 27.2188C12.4641 24.956 14.4811 23.3335 16.8349 22.5644C15.6706 21.8713 14.766 20.8151 14.26 19.5581C13.7541 18.3011 13.6747 16.9128 14.0342 15.6063C14.3936 14.2999 15.172 13.1475 16.2497 12.3263C17.3275 11.505 18.645 11.0602 20 11.0602C21.355 11.0602 22.6725 11.505 23.7503 12.3263C24.828 13.1475 25.6064 14.2999 25.9658 15.6063C26.3253 16.9128 26.2459 18.3011 25.7399 19.5581C25.234 20.8151 24.3294 21.8713 23.1651 22.5644C25.5189 23.3335 27.5359 24.956 28.8447 27.2188C28.9052 27.3232 28.9371 27.4417 28.9372 27.5624C28.9374 27.6831 28.9058 27.8017 28.8455 27.9063Z" fill="#FAFEFC"/>
</svg>
