<svg width="23" height="22" viewBox="0 0 23 22" fill="none" xmlns="http://www.w3.org/2000/svg">
<path d="M22.001 10.0685L17.5788 14.0241L18.9261 19.9395C19.0004 20.2607 18.9813 20.5974 18.8711 20.9073C18.7609 21.2171 18.5646 21.4862 18.3069 21.6804C18.0493 21.8747 17.7419 21.9854 17.4236 21.9987C17.1052 22.0119 16.7903 21.9271 16.5184 21.7548L11.5557 18.5888L6.59008 21.7548C6.31829 21.9261 6.0037 22.0101 5.68593 21.9964C5.36815 21.9826 5.0614 21.8717 4.8043 21.6777C4.5472 21.4836 4.35124 21.215 4.24111 20.9057C4.13097 20.5964 4.11158 20.2602 4.18538 19.9395L5.5376 14.0241L1.11538 10.0685C0.87491 9.85307 0.700996 9.56896 0.61536 9.25168C0.529724 8.93439 0.536161 8.59798 0.633867 8.28446C0.731573 7.97094 0.916218 7.69421 1.16474 7.48882C1.41327 7.28344 1.71466 7.1585 2.03127 7.12961L7.82929 6.64472L10.0659 1.03382C10.187 0.72803 10.3931 0.466464 10.6579 0.282378C10.9227 0.0982914 11.2344 0 11.5533 0C11.8722 0 12.1838 0.0982914 12.4487 0.282378C12.7135 0.466464 12.9196 0.72803 13.0406 1.03382L15.2763 6.64472L21.0743 7.12961C21.3916 7.15743 21.6938 7.28167 21.9433 7.48677C22.1927 7.69187 22.3782 7.96872 22.4765 8.28261C22.5748 8.59651 22.5816 8.93351 22.4959 9.25137C22.4103 9.56924 22.2361 9.85384 21.9951 10.0695L22.001 10.0685Z" fill="#46CF96" fill-opacity="0.56"/>
</svg>
