<svg width="23" height="22" viewBox="0 0 23 22" fill="none" xmlns="http://www.w3.org/2000/svg">
<path d="M22.1246 8.24831C22.0071 7.87251 21.7845 7.54129 21.4851 7.29657C21.1857 7.05185 20.8229 6.90462 20.4427 6.87353L15.0773 6.42477L13.0066 1.23892C12.861 0.872409 12.6136 0.558953 12.2958 0.338363C11.9779 0.117773 11.6039 0 11.2213 0C10.8386 0 10.4646 0.117773 10.1468 0.338363C9.82889 0.558953 9.58148 0.872409 9.43596 1.23892L7.36716 6.42575L2.00175 6.87353C1.62082 6.90607 1.25767 7.0545 0.957941 7.30016C0.65821 7.54582 0.435271 7.87775 0.317139 8.25425C0.199007 8.63074 0.190954 9.03501 0.29399 9.41623C0.397027 9.79745 0.606556 10.1386 0.896248 10.3969L4.99023 14.0538L3.73871 19.5234C3.64743 19.9091 3.66902 20.3141 3.80074 20.687C3.93246 21.0599 4.16834 21.3837 4.47835 21.6173C4.78836 21.8508 5.15848 21.9836 5.54156 21.9986C5.92465 22.0136 6.30338 21.9101 6.62952 21.7015L11.2213 18.7742L15.813 21.7015C16.1391 21.9087 16.5172 22.0112 16.8994 21.9958C17.2817 21.9804 17.651 21.8478 17.9605 21.6149C18.2701 21.382 18.5059 21.0593 18.6382 20.6875C18.7705 20.3157 18.7934 19.9116 18.7038 19.5264L17.4523 14.0567L21.5463 10.3998C21.8377 10.1409 22.0483 9.79821 22.1512 9.41513C22.2542 9.03205 22.245 8.62592 22.1246 8.24831ZM15.4432 12.736C15.2854 12.8769 15.1679 13.0601 15.1037 13.2655C15.0395 13.4709 15.031 13.6906 15.0792 13.9006L16.3013 19.2465L11.8176 16.3909C11.6383 16.2766 11.4318 16.216 11.2213 16.216C11.0107 16.216 10.8042 16.2766 10.6249 16.3909L6.14124 19.2465L7.36337 13.9045C7.4115 13.6945 7.40301 13.4748 7.3388 13.2694C7.2746 13.064 7.15715 12.8809 6.99929 12.7399L2.99159 9.15566L8.24417 8.71671C8.45319 8.69932 8.65351 8.62244 8.823 8.49455C8.99249 8.36666 9.12455 8.19275 9.20461 7.99201L11.2213 2.93481L13.2379 7.99201C13.318 8.19275 13.45 8.36666 13.6195 8.49455C13.789 8.62244 13.9893 8.69932 14.1984 8.71671L19.4509 9.15566L15.4432 12.736Z" fill="#46CF96" fill-opacity="0.56"/>
</svg>
